<svg xmlns="http://www.w3.org/2000/svg" viewBox="0 0 100 100">
  <path fill="#fff" d="M65.537 72.39c-4.81 3.368-10.428 5.062-16.18 4.98-.757-.01-1.513-.045-2.26-.113-.304-.028-.61-.08-.917-.12-.585-.072-1.17-.152-1.747-.266-.352-.067-.695-.153-1.042-.237-.56-.13-1.118-.262-1.665-.427-.265-.08-.52-.176-.78-.26-.635-.21-1.262-.433-1.873-.69-.14-.056-.273-.118-.412-.18-.716-.314-1.42-.648-2.104-1.02-.03-.015-.06-.033-.09-.05-2.316-1.266-4.432-2.85-6.286-4.703-.03-.033-.06-.067-.09-.097-.574-.58-1.125-1.188-1.648-1.817-.112-.132-.215-.28-.326-.416-3.78-4.725-6.058-10.706-6.058-17.216h7.27L17.696 32.312 6.063 49.76h7.27c0 7.65 2.386 14.74 6.437 20.602.05.086.085.17.142.25.42.602.886 1.153 1.334 1.72.17.217.324.44.5.648.665.802 1.37 1.563 2.09 2.3.068.07.135.143.206.21 2.43 2.44 5.174 4.488 8.165 6.124.082.046.16.097.24.137.865.466 1.746.888 2.65 1.28.22.096.44.203.663.3.773.318 1.558.597 2.352.857.375.132.75.262 1.13.375.692.21 1.403.38 2.12.55.473.11.944.23 1.427.325.198.04.388.097.588.13.675.12 1.35.188 2.024.268.245.03.482.074.73.097 1.21.12 2.42.2 3.626.2 7.393 0 14.6-2.263 20.786-6.596 1.97-1.38 2.454-4.1 1.067-6.072-1.38-1.978-4.107-2.455-6.073-1.074zM86.043 49.76c-.006-7.622-2.374-14.7-6.407-20.55-.057-.097-.097-.2-.165-.295-.5-.713-1.044-1.38-1.59-2.05-.062-.08-.12-.166-.187-.245-3.687-4.475-8.322-7.934-13.57-10.196-.147-.062-.29-.13-.432-.193-.84-.345-1.696-.652-2.56-.937-.313-.105-.62-.216-.932-.312-.756-.226-1.517-.408-2.29-.59-.426-.095-.846-.204-1.278-.29-.21-.038-.414-.102-.623-.14-.574-.1-1.148-.144-1.728-.217-.398-.05-.79-.114-1.188-.154-.967-.092-1.927-.13-2.887-.146-.175-.002-.343-.025-.516-.025-.035 0-.064.007-.095.01-7.38.006-14.578 2.233-20.755 6.562-1.974 1.38-2.453 4.102-1.07 6.075 1.38 1.973 4.1 2.453 6.075 1.07 4.77-3.34 10.34-5.035 16.05-4.98.817.004 1.625.044 2.424.12.243.026.487.063.732.095.66.08 1.312.17 1.948.295.283.057.562.13.84.193.63.143 1.26.296 1.875.483.192.057.386.13.578.193.705.23 1.398.478 2.074.762.068.028.136.063.204.09 4.068 1.75 7.636 4.442 10.418 7.81.018.02.034.046.052.065 3.913 4.77 6.27 10.863 6.276 17.497H70.04l11.64 17.45 11.628-17.45h-7.265z"/>
</svg>
